<svg viewBox="0 0 100 100" xmlns="http://www.w3.org/2000/svg">
    <path d="M79,71.5Q75,93,50,92.5Q25,92,21,71Q17,50,25.5,36.5Q34,23,52,19.5Q70,16,76.5,33Q83,50,79,71.5Z" stroke="none" stroke-width="0" fill="#f6e7e7"></path>
    <path d="M80,65.5Q68,81,51.5,78.5Q35,76,18.5,63Q2,50,17.5,35.5Q33,21,53,16Q73,11,82.5,30.5Q92,50,80,65.5Z" stroke="none" stroke-width="0" fill="#f4d3d3"></path>
    <path d="M83,69Q72,88,51,86.5Q30,85,17,67.5Q4,50,19,36Q34,22,53.5,16Q73,10,83.5,30Q94,50,83,69Z" stroke="none" stroke-width="0" fill="#f2bfbf"></path>
    <path d="M75.5,66.5Q69,83,48.5,86Q28,89,15.5,69.5Q3,50,15.5,31Q28,12,48,15Q68,18,75,34Q82,50,75.5,66.5Z" stroke="none" stroke-width="0" fill="#f0abab"></path>
    <path d="M81.5,66Q69,82,52,79.5Q35,77,23,63.5Q11,50,21,34Q31,18,51,16Q71,14,82.5,32Q94,50,81.5,66Z" stroke="none" stroke-width="0" fill="#ee9797"></path>
    <path d="M74.5,63Q65,76,46.5,82.5Q28,89,23,69.5Q18,50,26.5,37Q35,24,53,19Q71,14,77.5,32Q84,50,74.5,63Z" stroke="none" stroke-width="0" fill="#ec8383"></path>
    <path d="M76,65.5Q68,81,50,81.5Q32,82,26,66Q20,50,24.5,32Q29,14,48.5,16.5Q68,19,76,34.5Q84,50,76,65.5Z" stroke="none" stroke-width="0" fill="#ea6f6f"></path>
    <path d="M79.5,70.5Q74,91,50.5,90Q27,89,23,69.5Q19,50,22.5,29Q26,8,46,15Q66,22,75.5,36Q85,50,79.5,70.5Z" stroke="none" stroke-width="0" fill="#e85b5b"></path>
</svg>